<?xml version="1.0" encoding="UTF-8" standalone="no"?>
<!-- Created with Inkscape (http://www.inkscape.org/) -->

<svg
   width="739.82062"
   height="217.47083"
   viewBox="0 0 195.7442 57.539154"
   version="1.1"
   id="svg5"
   xml:space="preserve"
   inkscape:export-filename="../Desktop/testexport.jpg"
   inkscape:export-xdpi="96"
   inkscape:export-ydpi="96"
   inkscape:version="1.2.2 (b0a8486541, 2022-12-01)"
   sodipodi:docname="dsd-logo-editable.svg"
   xmlns:inkscape="http://www.inkscape.org/namespaces/inkscape"
   xmlns:sodipodi="http://sodipodi.sourceforge.net/DTD/sodipodi-0.dtd"
   xmlns="http://www.w3.org/2000/svg"
   xmlns:svg="http://www.w3.org/2000/svg"><sodipodi:namedview
     id="namedview7"
     pagecolor="#ffffff"
     bordercolor="#000000"
     borderopacity="0.25"
     inkscape:showpageshadow="true"
     inkscape:pageopacity="0.0"
     inkscape:pagecheckerboard="0"
     inkscape:deskcolor="#d1d1d1"
     inkscape:document-units="mm"
     showgrid="false"
     showborder="false"
     borderlayer="true"
     shape-rendering="auto"
     inkscape:zoom="2"
     inkscape:cx="498.5"
     inkscape:cy="382"
     inkscape:window-width="3840"
     inkscape:window-height="2083"
     inkscape:window-x="1920"
     inkscape:window-y="0"
     inkscape:window-maximized="1"
     inkscape:current-layer="layer1" /><defs
     id="defs2"><inkscape:path-effect
       effect="fillet_chamfer"
       id="path-effect11849"
       is_visible="true"
       lpeversion="1"
       nodesatellites_param="F,0,0,1,0,0,0,1 @ F,0,0,1,0,0,0,1 @ F,0,0,1,0,0,0,1 @ F,0,0,1,0,0,0,1 @ F,0,0,1,0,0,0,1 @ F,0,0,1,0,0,0,1 @ F,0,0,1,0,0,0,1 @ F,0,0,1,0,0,0,1 @ F,0,0,1,0,0,0,1 @ F,0,0,1,0,0,0,1 @ F,0,0,1,0,0,0,1 @ F,0,0,1,0,0,0,1 @ F,0,0,1,0,0,0,1 @ F,0,0,1,0,0.77819596,0,1 @ F,0,0,1,0,0,0,1 @ F,0,0,1,0,0,0,1 @ F,0,0,1,0,0,0,1 @ F,0,0,1,0,0,0,1 @ F,0,0,1,0,0,0,1 @ F,0,0,1,0,0,0,1 @ F,0,0,1,0,0,0,1 @ F,0,0,1,0,0,0,1 @ F,0,0,1,0,0,0,1 @ F,0,0,1,0,0,0,1 @ F,0,0,1,0,0,0,1 @ F,0,0,1,0,0,0,1 @ F,0,0,1,0,0,0,1 @ F,0,0,1,0,0,0,1 @ F,0,0,1,0,0,0,1 @ F,0,0,1,0,0,0,1 @ F,0,0,1,0,0,0,1 @ F,0,0,1,0,0,0,1 | F,0,0,1,0,0,0,1 @ F,0,0,1,0,0,0,1 @ F,0,0,1,0,0,0,1 @ F,0,0,1,0,0,0,1 @ F,0,0,1,0,0,0,1 @ F,0,0,1,0,0,0,1 | F,0,0,1,0,0,0,1 @ F,0,0,1,0,0,0,1 @ F,0,0,1,0,0,0,1 @ F,0,0,1,0,0,0,1 @ F,0,0,1,0,0,0,1 @ F,0,0,1,0,0,0,1 @ F,0,0,1,0,0,0,1 @ F,0,0,1,0,0,0,1 @ F,0,0,1,0,0,0,1 @ F,0,0,1,0,0,0,1 @ F,0,0,1,0,0,0,1 @ F,0,0,1,0,0,0,1 @ F,0,0,1,0,0,0,1 @ F,0,0,1,0,0,0,1 @ F,0,0,1,0,0,0,1 @ F,0,0,1,0,0,0,1 @ F,0,0,1,0,0,0,1 @ F,0,0,1,0,0,0,1 @ F,0,0,1,0,0,0,1 @ F,0,0,1,0,0,0,1 @ F,0,0,1,0,0,0,1 @ F,0,0,1,0,0,0,1 @ F,0,0,1,0,0,0,1 @ F,0,0,1,0,0,0,1 @ F,0,0,1,0,0,0,1 @ F,0,0,1,0,0,0,1 @ F,0,0,1,0,0,0,1 @ F,0,0,1,0,0,0,1 @ F,0,0,1,0,0,0,1 @ F,0,0,1,0,0,0,1 @ F,0,0,1,0,0,0,1 @ F,0,0,1,0,0,0,1 @ F,0,0,1,0,0,0,1 @ F,0,0,1,0,0,0,1 @ F,0,0,1,0,0,0,1 @ F,0,0,1,0,0,0,1 @ F,0,0,1,0,0,0,1 @ F,0,0,1,0,0,0,1 @ F,0,0,1,0,0,0,1 @ F,0,0,1,0,0,0,1 @ F,0,0,1,0,0,0,1 @ F,0,0,1,0,0,0,1 @ F,0,0,1,0,0,0,1 @ F,0,0,1,0,0,0,1 @ F,0,0,1,0,0,0,1 @ F,0,0,1,0,0,0,1 @ F,0,0,1,0,0,0,1 @ F,0,0,1,0,0,0,1 @ F,0,0,1,0,0,0,1 @ F,0,0,1,0,0,0,1 @ F,0,0,1,0,0,0,1 @ F,0,0,1,0,0,0,1 @ F,0,0,1,0,0,0,1 @ F,0,0,1,0,0,0,1 @ F,0,0,1,0,0,0,1 @ F,0,0,1,0,0,0,1 @ F,0,0,1,0,0,0,1 @ F,0,0,1,0,0,0,1 @ F,0,0,1,0,0,0,1 @ F,0,0,1,0,0,0,1 @ F,0,0,1,0,0,0,1 @ F,0,0,1,0,0,0,1 @ F,0,0,1,0,0,0,1 @ F,0,0,1,0,0,0,1 @ F,0,0,1,0,0,0,1 @ F,0,0,1,0,0,0,1 @ F,0,0,1,0,0,0,1 @ F,0,0,1,0,0,0,1 @ F,0,0,1,0,0,0,1 @ F,0,0,1,0,0,0,1 @ F,0,0,1,0,0,0,1 @ F,0,0,1,0,0,0,1 @ F,0,0,1,0,0,0,1 @ F,0,0,1,0,0,0,1 @ F,0,0,1,0,0,0,1 @ F,0,0,1,0,0,0,1 @ F,0,0,1,0,0,0,1 @ F,0,0,1,0,0,0,1 @ F,0,0,1,0,0,0,1 @ F,0,0,1,0,0,0,1 @ F,0,0,1,0,0,0,1 @ F,0,0,1,0,0,0,1 @ F,0,0,1,0,0,0,1 @ F,0,0,1,0,0,0,1 @ F,0,0,1,0,0,0,1 @ F,0,0,1,0,0,0,1 @ F,0,0,1,0,0,0,1 @ F,0,0,1,0,0,0,1 @ F,0,0,1,0,0,0,1 @ F,0,0,1,0,0,0,1 @ F,0,0,1,0,0,0,1 @ F,0,0,1,0,0,0,1 @ F,0,0,1,0,0,0,1 @ F,0,0,1,0,0,0,1 @ F,0,0,1,0,0,0,1 @ F,0,0,1,0,0,0,1 @ F,0,0,1,0,0,0,1 @ F,0,0,1,0,0,0,1 @ F,0,0,1,0,0,0,1 @ F,0,0,1,0,0,0,1 @ F,0,0,1,0,0,0,1 @ F,0,0,1,0,0,0,1 @ F,0,0,1,0,0,0,1 @ F,0,0,1,0,0,0,1 @ F,0,0,1,0,0,0,1 @ F,0,0,1,0,0,0,1 @ F,0,0,1,0,0,0,1 @ F,0,0,1,0,0,0,1 @ F,0,0,1,0,0,0,1 @ F,0,0,1,0,0,0,1 @ F,0,0,1,0,0,0,1 @ F,0,0,1,0,0,0,1 @ F,0,0,1,0,0,0,1 @ F,0,0,1,0,0,0,1 @ F,0,0,1,0,0,0,1 @ F,0,0,1,0,0,0,1 @ F,0,0,1,0,0,0,1 @ F,0,0,1,0,0,0,1 @ F,0,0,1,0,0,0,1 @ F,0,0,1,0,0,0,1 @ F,0,0,1,0,0,0,1 @ F,0,0,1,0,0,0,1 @ F,0,0,1,0,0,0,1 @ F,0,0,1,0,0,0,1 @ F,0,0,1,0,0,0,1 @ F,0,0,1,0,0,0,1 @ F,0,0,1,0,0,0,1 @ F,0,0,1,0,0,0,1 @ F,0,0,1,0,0,0,1 @ F,0,0,1,0,0,0,1 @ F,0,0,1,0,0,0,1 @ F,0,0,1,0,0,0,1 @ F,0,0,1,0,0,0,1 @ F,0,0,1,0,0,0,1 @ F,0,0,1,0,0,0,1 @ F,0,0,1,0,0,0,1 @ F,0,0,1,0,0,0,1 @ F,0,0,1,0,0,0,1 @ F,0,0,1,0,0,0,1 @ F,0,0,1,0,0,0,1 @ F,0,0,1,0,0,0,1 @ F,0,0,1,0,0,0,1 @ F,0,0,1,0,0,0,1 @ F,0,0,1,0,0,0,1 @ F,0,0,1,0,0,0,1 @ F,0,0,1,0,0,0,1 @ F,0,0,1,0,0,0,1 @ F,0,0,1,0,0,0,1 @ F,0,0,1,0,0,0,1 @ F,0,0,1,0,0,0,1 @ F,0,0,1,0,0,0,1 @ F,0,0,1,0,0,0,1 @ F,0,0,1,0,0,0,1 @ F,0,0,1,0,0,0,1 @ F,0,0,1,0,0,0,1 @ F,0,0,1,0,0,0,1 @ F,0,0,1,0,0,0,1 @ F,0,0,1,0,0,0,1 @ F,0,0,1,0,0,0,1 @ F,0,0,1,0,0,0,1 @ F,0,0,1,0,0,0,1 @ F,0,0,1,0,0,0,1 @ F,0,0,1,0,0,0,1 @ F,0,0,1,0,0,0,1 @ F,0,0,1,0,0,0,1 @ F,0,0,1,0,0,0,1 @ F,0,0,1,0,0,0,1 @ F,0,0,1,0,0,0,1 @ F,0,0,1,0,0,0,1 @ F,0,0,1,0,0,0,1 @ F,0,0,1,0,0,0,1 @ F,0,0,1,0,0,0,1 @ F,0,0,1,0,0,0,1 @ F,0,0,1,0,0,0,1 @ F,0,0,1,0,0,0,1 @ F,0,0,1,0,0,0,1 @ F,0,0,1,0,0,0,1 @ F,0,0,1,0,0,0,1 @ F,0,0,1,0,0,0,1 @ F,0,0,1,0,0,0,1 @ F,0,0,1,0,0,0,1 @ F,0,0,1,0,0,0,1 @ F,0,0,1,0,0,0,1 @ F,0,0,1,0,0,0,1 @ F,0,0,1,0,0,0,1 @ F,0,0,1,0,0,0,1 @ F,0,0,1,0,0,0,1 @ F,0,0,1,0,0,0,1 @ F,0,0,1,0,0,0,1 @ F,0,0,1,0,0,0,1 @ F,0,0,1,0,0,0,1 @ F,0,0,1,0,0,0,1 @ F,0,0,1,0,0,0,1 @ F,0,0,1,0,0,0,1 @ F,0,0,1,0,0,0,1 @ F,0,0,1,0,0,0,1 @ F,0,0,1,0,0.9660885,0,1 @ F,0,0,1,0,0.70103723,0,1 @ F,0,0,1,0,0,0,1 | F,0,0,1,0,0,0,1 @ F,0,0,1,0,0,0,1 @ F,0,0,1,0,0,0,1 @ F,0,0,1,0,0,0,1 @ F,0,0,1,0,0,0,1 @ F,0,0,1,0,0,0,1 | F,0,0,1,0,0,0,1 @ F,0,0,1,0,0,0,1 @ F,0,0,1,0,0,0,1 @ F,0,0,1,0,0,0,1 @ F,0,0,1,0,0,0,1 @ F,0,0,1,0,0,0,1 | F,0,0,1,0,0,0,1 @ F,0,0,1,0,0,0,1 @ F,0,0,1,0,0,0,1 @ F,0,0,1,0,0,0,1 @ F,0,0,1,0,0,0,1 @ F,0,0,1,0,0,0,1 @ F,0,0,1,0,0,0,1 | F,0,0,1,0,0,0,1 @ F,0,0,1,0,0,0,1 @ F,0,0,1,0,0,0,1 @ F,0,0,1,0,0,0,1 @ F,0,0,1,0,0,0,1 @ F,0,0,1,0,0,0,1 | F,0,0,1,0,0,0,1 @ F,0,0,1,0,0,0,1 @ F,0,0,1,0,0,0,1 @ F,0,0,1,0,0,0,1 @ F,0,0,1,0,0,0,1 @ F,0,0,1,0,0,0,1 | F,0,0,1,0,0,0,1 @ F,0,0,1,0,0,0,1 @ F,0,0,1,0,0,0,1 @ F,0,0,1,0,0,0,1 @ F,0,0,1,0,0,0,1 @ F,0,0,1,0,0,0,1"
       unit="px"
       method="auto"
       mode="F"
       radius="0"
       chamfer_steps="1"
       flexible="false"
       use_knot_distance="true"
       apply_no_radius="true"
       apply_with_radius="true"
       only_selected="false"
       hide_knots="false" /></defs><g
     inkscape:label="Layer 1"
     inkscape:groupmode="layer"
     id="layer1"><g
       id="g3574"
       transform="matrix(1.1010433,0,0,1.1010433,-26.421428,-145.84116)"
       inkscape:label="Writing_Paths"
       inkscape:export-filename="../../../../../../../../../../../../../../home/jean/Desktop/dsd-logo.svg"
       inkscape:export-xdpi="96"
       inkscape:export-ydpi="96"><path
         style="fill:#000000;stroke-width:0.101264"
         d="m 152.72844,166.20722 c -1.99121,-0.36133 -4.35654,-1.11645 -6.51599,-2.08015 -2.42836,-1.08369 -3.16205,-1.795 -2.96037,-2.87008 0.14467,-0.77115 1.04368,-1.38456 1.78921,-1.2208 0.16271,0.0358 0.52245,0.22086 0.79947,0.41141 1.40964,0.96967 5.76129,2.16948 7.86482,2.16847 1.61626,-0.001 3.28687,-0.42339 4.44253,-1.12378 0.77787,-0.47143 1.54656,-1.16476 1.88757,-1.70246 0.50222,-0.79191 0.37149,-1.78323 -0.44855,-3.40116 -0.37753,-0.74489 -2.19413,-3.35448 -2.9959,-4.30372 -0.62784,-0.74331 -3.1991,-3.5583 -4.65252,-5.09354 -1.78538,-1.88588 -3.13737,-3.79589 -4.02847,-5.69115 -0.5478,-1.16504 -0.68717,-1.81848 -0.63239,-2.96451 0.0384,-0.80327 0.0898,-1.00905 0.41711,-1.67138 0.8131,-1.6452 3.0745,-3.23526 5.33728,-3.75283 1.6483,-0.37701 2.85976,-0.50031 4.30373,-0.43803 3.99341,0.17228 6.40577,1.24123 7.4167,3.28649 l 0.38067,0.77015 -5e-5,1.32177 c -8e-5,1.71911 -0.0866,2.20243 -0.47297,2.6425 -0.46741,0.53233 -0.96822,0.46211 -1.31413,-0.18423 -0.0653,-0.12199 -0.12007,-0.74216 -0.12679,-1.43513 -0.0104,-1.05036 -0.0452,-1.29447 -0.25159,-1.7527 -0.38278,-0.84992 -1.27815,-1.49084 -2.42168,-1.73348 -0.78929,-0.16747 -3.02961,-0.14246 -3.9318,0.0441 -1.59831,0.33014 -4.01004,1.34849 -4.77462,2.01609 -0.59843,0.52252 -0.76655,0.87298 -0.63947,1.33314 0.2764,1.00108 1.99773,3.41113 3.70945,5.19369 3.62144,3.7713 5.0419,5.3971 6.76867,7.74719 2.31862,3.1556 3.04194,4.85248 3.04639,7.14678 0.003,1.32531 -0.19038,2.05817 -0.81499,3.09542 -1.32519,2.20071 -4.08407,3.87378 -7.07346,4.28956 -1.05212,0.14634 -3.1753,0.12183 -4.10786,-0.0474 z m 23.94907,-1.06847 c -1.48426,-0.36126 -2.04606,-0.58815 -2.37015,-0.95726 -0.57398,-0.65373 -0.54074,-1.56402 0.0798,-2.18454 0.5363,-0.5363 0.92743,-0.58527 2.03059,-0.25419 0.55892,0.16772 1.12648,0.26596 1.53527,0.26569 0.72607,-4e-4 2.28924,-0.23241 2.88849,-0.42862 l 0.39292,-0.12866 0.057,-5.87298 c 0.0871,-8.99164 0.35097,-15.62776 0.66984,-16.84709 0.0614,-0.2349 0.0538,-0.23757 -0.48405,-0.16801 -1.4683,0.18992 -1.93578,0.33829 -2.24399,0.71221 -0.43264,0.52486 -0.81755,0.70113 -1.16614,0.53406 -0.32207,-0.15436 -0.56863,-0.78036 -0.47507,-1.20622 0.10036,-0.45711 0.58757,-1.03195 1.11872,-1.32007 0.89016,-0.48286 4.1177,-1.31713 5.81491,-1.50309 5.32409,-0.58337 7.87395,-0.2895 11.25959,1.29772 2.94638,1.38129 4.32263,2.91736 5.32589,5.94441 0.56109,1.69295 0.67104,2.44503 0.66609,4.55656 -0.006,2.23588 -0.0961,2.6858 -0.93885,4.64798 -1.36263,3.17261 -3.15937,5.46186 -5.91652,7.53841 -2.65097,1.99656 -5.9214,3.66613 -8.8266,4.50601 -3.38305,0.97803 -7.43168,1.35104 -9.41762,0.86768 z m 9.70074,-5.32423 c 2.23109,-0.94172 5.68534,-3.23899 7.35021,-4.88825 1.28022,-1.26826 2.70642,-3.63215 3.33357,-5.52534 0.56552,-1.70724 0.27295,-4.62569 -0.64606,-6.44452 -0.53839,-1.0655 -2.47882,-2.7706 -4.04245,-3.55217 -1.33507,-0.66733 -3.08332,-1.05429 -5.22506,-1.15654 l -1.43792,-0.0686 0.0697,0.27751 c 0.0382,0.15262 0.15304,1.01438 0.25497,1.91502 0.15786,1.39492 0.17297,1.99007 0.10197,4.01724 -0.10082,2.87746 -0.30207,5.62766 -0.70765,9.67076 -0.36817,3.67015 -0.49144,6.22777 -0.30013,6.22777 0.0708,0 0.63281,-0.21278 1.24893,-0.47284 z m -74.54354,4.92897 c -1.85409,-0.47526 -2.3259,-0.80319 -2.49897,-1.73692 -0.0897,-0.48397 0.21665,-1.18901 0.65101,-1.49831 0.49378,-0.3516 0.96453,-0.36805 1.91745,-0.0669 1.11708,0.35287 2.19502,0.32786 4.04984,-0.094 l 0.72419,-0.16472 0.006,-4.77663 c 0.002,-2.62714 0.0464,-5.5513 0.0971,-6.49812 0.0507,-0.94683 0.12098,-3.17972 0.15611,-4.96197 0.042,-2.1301 0.13043,-3.82717 0.25817,-4.95267 0.10693,-0.94171 0.17505,-1.73148 0.15148,-1.75505 -0.0568,-0.0567 -1.51325,0.15099 -2.06502,0.29453 -0.30603,0.0796 -0.4774,0.19466 -0.57709,0.38744 -0.32375,0.62606 -1.09545,0.8063 -1.46125,0.34127 -0.4681,-0.5951 -0.14118,-1.60886 0.7013,-2.17468 0.62588,-0.42033 2.22337,-0.89466 4.8609,-1.44324 2.11301,-0.4395 6.60938,-0.56428 8.40498,-0.23328 2.14679,0.39578 4.9342,1.61241 6.40964,2.79766 1.46911,1.18016 2.21775,2.34448 2.95449,4.59503 0.47939,1.46443 0.6603,2.66271 0.65988,4.37079 -6.4e-4,2.3267 -0.23507,3.26741 -1.41353,5.67084 -1.66665,3.39908 -3.50917,5.40387 -7.14216,7.77109 -3.49145,2.27499 -6.94822,3.56842 -11.18973,4.1869 -2.41634,0.35233 -4.11843,0.33459 -5.65365,-0.0589 z m 10.22281,-5.35966 c 1.21371,-0.54158 3.25815,-1.73935 4.58032,-2.68346 2.75588,-1.96788 4.20371,-3.71766 5.44624,-6.58212 0.58135,-1.34017 0.69524,-1.87153 0.69524,-3.24366 0,-1.20153 -0.11247,-1.92247 -0.47483,-3.04273 -0.36148,-1.11766 -0.54995,-1.46081 -1.24743,-2.27121 -2.03922,-2.36933 -5.22577,-3.65275 -9.06927,-3.65275 -0.77038,0 -0.86791,0.0199 -0.81176,0.16629 0.15965,0.41604 0.46418,3.40991 0.46418,4.56338 0,1.7132 -0.34494,6.78405 -0.71154,10.46001 -0.27331,2.74066 -0.5024,5.73023 -0.50327,6.56786 -3.1e-4,0.31896 0.0166,0.33583 0.27302,0.27148 0.15036,-0.0377 0.76195,-0.28662 1.3591,-0.55309 z"
         id="path3556"
         inkscape:label="Path_DSD" /><path
         style="fill:#000000;stroke-width:0.0441937"
         d="m 144.81225,184.6945 c -0.58163,-0.0422 -0.92871,-0.14473 -1.90889,-0.56354 -1.26668,-0.54122 -1.43938,-0.6674 -1.46942,-1.07358 -0.0275,-0.37251 0.18584,-0.63447 0.55738,-0.68431 0.14422,-0.0194 0.24049,0.009 0.54305,0.15787 0.22065,0.10883 0.64178,0.2546 1.05276,0.36442 0.67965,0.18161 0.6895,0.18285 1.25952,0.15786 0.96777,-0.0424 1.30372,-0.17724 1.30372,-0.52327 0,-0.20455 -0.22987,-0.94019 -0.39841,-1.27506 -0.23373,-0.46435 -1.06066,-1.77756 -1.65053,-2.62109 -1.17856,-1.68537 -1.32024,-2.03078 -1.08777,-2.65208 0.14929,-0.39903 0.49396,-0.69113 1.20728,-1.02317 0.855,-0.39798 1.55246,-0.55361 2.10016,-0.46863 0.35857,0.0556 0.75149,0.18718 1.00787,0.33744 0.33829,0.19825 0.72173,0.81781 0.72173,1.16617 0,0.16975 -0.19455,0.40067 -0.33758,0.40067 -0.20423,0 -0.35693,-0.11848 -0.44024,-0.34156 -0.11155,-0.29871 -0.18007,-0.39307 -0.33076,-0.45548 -0.32745,-0.13564 -0.9553,0.0693 -1.66419,0.54318 l -0.45261,0.30257 0.27187,0.40653 c 0.14953,0.22359 0.45414,0.66506 0.67692,0.98104 0.5501,0.78027 1.53823,2.37289 1.7185,2.76978 0.22769,0.50132 0.46271,1.22141 0.521,1.59635 0.0716,0.46072 0.007,0.86903 -0.20681,1.3011 -0.47116,0.95333 -1.37491,1.31452 -2.99455,1.19679 z m -29.04508,-0.40462 c -0.27133,-0.0707 -0.4164,-0.14648 -0.72765,-0.38033 -0.30263,-0.22737 -0.40644,-0.38878 -0.4102,-0.63778 -0.006,-0.38836 0.26643,-0.66836 0.65,-0.66836 0.19649,0 0.26898,0.0245 0.44351,0.14983 l 0.20863,0.14983 0.49237,-0.0313 c 0.47752,-0.0303 1.15618,-0.12201 1.19581,-0.16165 0.0254,-0.0254 0.14422,-1.55562 0.20388,-2.62583 0.0257,-0.46182 0.0656,-1.1181 0.0884,-1.45839 0.0229,-0.34029 0.0426,-0.97668 0.0439,-1.4142 8.9e-4,-0.45745 0.0275,-0.93634 0.0614,-1.12694 0.0325,-0.1823 0.05,-0.34698 0.039,-0.36595 -0.0311,-0.0535 -0.32049,0.0123 -0.57481,0.13082 -0.41008,0.19104 -0.72289,0.0361 -0.65522,-0.32465 0.0622,-0.33185 0.38786,-0.50766 1.26267,-0.6818 0.40522,-0.0806 0.52273,-0.1213 0.58716,-0.20303 0.093,-0.11794 0.27908,-0.13494 0.40819,-0.0373 0.0602,0.0455 0.20462,0.0655 0.48353,0.0667 1.31421,0.006 2.43246,0.25206 3.42948,0.75416 0.42114,0.21209 0.63744,0.37282 1.08969,0.80972 0.8171,0.78939 1.10343,1.49914 1.06005,2.62754 -0.0244,0.63356 -0.10584,0.92522 -0.43544,1.55875 -0.42955,0.82564 -1.00622,1.435 -2.07232,2.18974 -0.55646,0.39395 -0.84812,0.55866 -1.45948,0.82422 -1.41821,0.61604 -2.60344,0.86261 -4.3078,0.89618 -0.63346,0.0125 -0.94648,9e-4 -1.10485,-0.0401 z m 4.55593,-2.41106 c 0.82016,-0.40703 1.46304,-0.86708 2.07313,-1.48356 0.32603,-0.32945 0.44156,-0.48534 0.64081,-0.86463 l 0.24307,-0.46271 -8.9e-4,-0.44194 c -0.002,-0.49409 -0.0305,-0.57429 -0.39609,-1.09737 -0.45822,-0.65549 -0.85503,-0.96987 -1.66484,-1.319 -0.39985,-0.17239 -1.01654,-0.34485 -1.2352,-0.34544 -0.11538,-3.3e-4 -0.11545,-7e-5 -0.0722,0.23172 0.0583,0.31317 0.0119,2.46351 -0.074,3.42542 -0.0375,0.4195 -0.11819,1.18101 -0.17937,1.69224 -0.12669,1.05844 -0.12346,1.01422 -0.0741,1.01422 0.0204,0 0.35352,-0.15703 0.74023,-0.34895 z m 56.07789,2.33653 c -0.6701,-0.0338 -1.40961,-0.11297 -1.65882,-0.17761 -0.0859,-0.0222 -0.22513,-0.11161 -0.30935,-0.1985 -0.14245,-0.14696 -0.15313,-0.17782 -0.15313,-0.44206 0,-0.26952 0.009,-0.29258 0.1664,-0.45053 0.15979,-0.15984 0.17738,-0.16611 0.44194,-0.1576 0.68478,0.0221 1.98522,0.0109 2.28635,-0.0196 l 0.33145,-0.0335 0.0259,-0.7292 c 0.0348,-0.97761 0.19124,-2.58092 0.41197,-4.22173 0.0648,-0.48171 0.22785,-1.08351 0.37892,-1.39856 0.0767,-0.1599 0.0765,-0.16268 -0.016,-0.18486 -0.0516,-0.0124 -0.4133,-0.0364 -0.80382,-0.0533 l -0.71002,-0.0308 -0.15175,0.13188 c -0.20225,0.17577 -0.31891,0.23324 -0.47346,0.23324 -0.18942,0 -0.27492,-0.1211 -0.27492,-0.3894 0,-0.20812 0.0162,-0.24446 0.18783,-0.4214 0.40593,-0.4185 1.65863,-0.69632 3.19299,-0.70811 0.69281,-0.005 0.78868,0.004 1.23143,0.11936 0.56478,0.14721 1.0248,0.33452 1.61233,0.65654 0.89628,0.49123 1.86884,1.70226 2.10497,2.62111 0.20331,0.7911 0.19828,1.72742 -0.0126,2.33911 -0.24586,0.71327 -0.91469,1.57067 -1.60364,2.05576 -0.50547,0.3559 -0.79309,0.50125 -1.65317,0.83539 -1.11266,0.43227 -1.57015,0.53862 -2.69118,0.62555 -0.61303,0.0475 -0.89921,0.0473 -1.86077,-9e-4 z m 3.84486,-2.28253 c 0.8622,-0.40533 1.2066,-0.62903 1.57415,-1.02247 0.5772,-0.61784 0.7153,-1.0253 0.62074,-1.83132 -0.061,-0.5199 -0.1394,-0.68673 -0.57887,-1.23179 -0.2169,-0.26902 -0.41226,-0.4501 -0.71423,-0.66204 -0.46192,-0.32421 -0.97935,-0.63362 -1.13829,-0.68066 -0.0953,-0.0282 -0.10182,-0.0204 -0.0787,0.0952 0.0779,0.38814 0.11959,0.91368 0.0941,1.18555 -0.0755,0.80386 -0.28294,2.13253 -0.46394,2.97082 -0.0798,0.36986 -0.26515,1.4402 -0.26517,1.53171 -1e-5,0.069 0.23503,-0.0188 0.95016,-0.35498 z m 5.1552,2.06114 c -0.51111,-0.13388 -0.79796,-0.3619 -0.99589,-0.79169 -0.0831,-0.18058 -0.0924,-0.28005 -0.0905,-0.9745 0.002,-0.5359 0.0244,-0.88196 0.0746,-1.12695 0.52764,-2.57474 0.70695,-3.42956 0.74858,-3.56864 0.0372,-0.12457 0.0365,-0.20943 -0.004,-0.34172 -0.0441,-0.14714 -0.0413,-0.19822 0.0174,-0.31163 0.0386,-0.0746 0.0999,-0.14707 0.13633,-0.16103 0.0364,-0.0139 0.13575,-0.13413 0.22076,-0.26703 0.20484,-0.32022 0.52013,-0.65298 0.68238,-0.72018 0.23397,-0.0969 0.36033,-0.003 0.56631,0.4227 l 0.17969,0.371 0.3664,-0.0246 c 0.56864,-0.0381 1.5651,-0.22217 2.49995,-0.46173 1.01909,-0.26115 1.20501,-0.27292 1.37847,-0.0873 l 0.12245,0.13109 0.1991,-0.21948 c 0.26768,-0.29507 0.34728,-0.29017 0.72434,0.0446 0.36567,0.3246 0.41779,0.40555 0.5875,0.91245 0.13769,0.41121 0.21804,1.07463 0.28843,2.38112 0.0144,0.26737 0.038,0.6154 0.0523,0.77339 l 0.0261,0.28726 0.13072,-0.37565 c 0.14042,-0.40349 1.18407,-2.59355 1.54793,-3.24823 0.27776,-0.49977 0.67225,-1.02308 0.83449,-1.10697 0.31693,-0.1639 0.69703,0.007 0.76476,0.34464 0.0329,0.16365 -0.0244,0.2982 -0.24452,0.57434 -0.36118,0.45314 -1.35761,2.70978 -1.72219,3.90026 -0.30557,0.9978 -0.92992,2.70472 -1.06837,2.92087 -0.38553,0.60186 -0.93885,0.7533 -1.42786,0.39077 -0.13975,-0.10359 -0.37798,-0.51452 -0.5492,-0.94728 -0.19711,-0.49824 -0.30703,-1.25996 -0.37545,-2.6019 -0.0354,-0.69577 -0.0861,-1.5857 -0.11248,-1.97761 -0.0342,-0.50818 -0.0344,-0.81017 -6.7e-4,-1.05281 0.0763,-0.54857 0.10211,-0.51033 -0.29402,-0.43553 -0.18774,0.0354 -0.61034,0.15057 -0.93911,0.25581 -0.50564,0.16187 -2.04073,0.59274 -2.56441,0.71978 -0.15235,0.037 -0.15512,0.0418 -0.18484,0.32206 -0.0166,0.1565 -0.0902,0.57224 -0.16355,0.92386 -0.0733,0.35162 -0.12661,0.64606 -0.11836,0.65431 0.008,0.008 0.28788,0.032 0.6214,0.0527 0.64358,0.04 0.91046,0.0173 1.54913,-0.13156 0.45288,-0.10559 0.59365,-0.0876 0.74779,0.0956 0.15662,0.18614 0.15265,0.43305 -0.01,0.61174 -0.10755,0.11827 -0.20028,0.15191 -0.80653,0.29254 -0.61856,0.14349 -0.76543,0.16112 -1.51413,0.18174 -0.80057,0.0221 -0.82988,0.0261 -0.85086,0.11695 -0.012,0.0518 -0.0915,0.42225 -0.17682,0.8233 -0.0853,0.40106 -0.16475,0.77226 -0.17655,0.82487 -0.0201,0.0896 0,0.0977 0.31048,0.12678 0.38483,0.0361 1.00652,-0.0217 1.9442,-0.18053 0.63096,-0.1069 0.67049,-0.10875 0.85116,-0.0397 0.36776,0.14045 0.52577,0.59965 0.32157,0.93455 -0.11634,0.1908 -0.24943,0.27018 -0.54444,0.32472 -0.1366,0.0253 -0.49244,0.11483 -0.79075,0.19906 -1.20765,0.34101 -2.09086,0.41734 -2.77014,0.23941 z m -34.42058,-0.0221 c -0.34178,-0.0921 -0.51973,-0.1749 -0.85602,-0.39846 -0.41023,-0.27273 -0.71456,-0.62568 -0.95069,-1.10262 -0.37391,-0.75519 -0.48936,-1.43531 -0.44634,-2.62952 0.0402,-1.11636 0.22352,-2.15312 0.56591,-3.20074 0.30824,-0.94314 0.70481,-1.48194 1.31137,-1.78172 0.8063,-0.39849 1.44617,-0.0741 1.99288,1.01025 0.17333,0.34381 0.23777,0.52527 0.25711,0.72396 0.0142,0.14584 0.0616,0.31641 0.10541,0.37904 0.12811,0.18325 0.61171,1.22791 0.72907,1.57493 0.16097,0.47593 0.2256,1.31929 0.15714,2.05031 -0.22299,2.38079 -1.40188,3.76895 -2.86584,3.37457 z m 0.94081,-1.90491 c 0.23944,-0.24637 0.5516,-0.86582 0.68731,-1.36392 0.0807,-0.29636 0.097,-0.47864 0.10043,-1.12694 l 0.004,-0.77339 -0.25799,-0.61447 c -0.31534,-0.75105 -0.41834,-0.91127 -0.70348,-1.09424 -0.12235,-0.0785 -0.25914,-0.18213 -0.30398,-0.23026 -0.0448,-0.0481 -0.09,-0.079 -0.10036,-0.0687 -0.0104,0.0104 -0.0996,0.34701 -0.19832,0.74808 -0.50945,2.06988 -0.52444,3.66321 -0.0409,4.34235 0.11706,0.16439 0.42186,0.38638 0.53052,0.38638 0.0459,0 0.17304,-0.0922 0.2826,-0.20497 z m -0.25032,-5.95611 c 0.10681,-0.0592 0.10681,-0.0592 0.0138,-0.10903 -0.0947,-0.0507 -0.10788,-0.0428 -0.15657,0.094 -0.0326,0.0916 -9e-4,0.0949 0.14284,0.015 z m -22.65243,7.52947 c -0.92339,-0.12325 -1.6058,-0.51971 -2.27929,-1.32421 -0.38185,-0.45613 -0.71766,-1.07712 -0.86033,-1.59097 -0.12562,-0.45241 -0.11224,-1.88006 0.024,-2.56123 0.18626,-0.93124 0.56553,-1.91219 0.96911,-2.50647 0.36001,-0.53014 0.95184,-0.96423 1.45941,-1.07042 0.87638,-0.18337 2.03642,0.19082 2.38788,0.77021 0.0648,0.10695 0.14777,0.19526 0.18423,0.19626 0.13534,0.004 0.52595,0.26897 0.71607,0.48631 0.49514,0.56602 0.80486,1.55238 0.9185,2.92509 0.0832,1.00544 -0.0463,1.80669 -0.41496,2.56711 -0.28482,0.58746 -0.52489,0.93389 -0.92977,1.34169 -0.61248,0.61692 -1.34966,0.87678 -2.17483,0.76663 z m 1.10416,-1.78154 c 0.37006,-0.21687 0.86087,-0.84786 1.0475,-1.34666 0.19033,-0.50872 0.23233,-0.85615 0.20661,-1.70941 -0.0243,-0.80453 -0.0957,-1.24203 -0.27689,-1.6948 -0.0814,-0.20327 -0.15219,-0.20414 -0.15219,-0.002 0,0.30613 -0.296,0.58607 -0.51446,0.48653 -0.0574,-0.0262 -0.14414,-0.11263 -0.19264,-0.19212 -0.0781,-0.12804 -0.0849,-0.19177 -0.0593,-0.55849 l 0.0289,-0.41396 -0.10632,0.0331 c -0.0585,0.0182 -0.16082,0.0714 -0.22744,0.11835 -0.36161,0.2547 -0.78485,0.0568 -0.78485,-0.36704 0,-0.18195 0.0613,-0.28218 0.25522,-0.4177 l 0.16461,-0.115 -0.15467,0.0297 c -0.4475,0.086 -0.663,0.34204 -1.09725,1.30344 -0.30857,0.68317 -0.46189,1.25519 -0.54031,2.01584 -0.11572,1.12243 0.0724,1.70291 0.79093,2.44059 0.48559,0.49855 1.15187,0.65947 1.61258,0.38949 z m 33.89436,1.67312 c -0.99367,-0.1802 -1.81622,-0.93358 -2.05118,-1.87869 -0.041,-0.16486 -0.0593,-0.50613 -0.0569,-1.06065 0.005,-1.25315 0.21302,-2.28886 0.66445,-3.31453 0.20846,-0.47362 0.28218,-0.59216 0.51679,-0.83101 0.2964,-0.30177 0.62102,-0.539 0.73754,-0.539 0.14059,0 0.25739,0.20217 0.39388,0.68174 0.0755,0.26558 0.14532,0.49077 0.15496,0.50042 0.0389,0.0389 1.87852,-0.26117 2.62172,-0.42774 0.22458,-0.0504 0.45978,-0.0915 0.52267,-0.0915 0.1709,0 0.37272,0.222 0.37272,0.40998 0,0.226 -0.15295,0.36567 -0.46887,0.42815 -0.14318,0.0283 -0.51886,0.12095 -0.83485,0.20585 -0.54165,0.14556 -1.60149,0.37025 -2.06605,0.43801 -0.18091,0.0264 -0.20992,0.0447 -0.20992,0.13256 0,0.0561 -0.0486,0.30737 -0.10804,0.55845 -0.0594,0.25109 -0.12176,0.55382 -0.13854,0.67273 -0.0298,0.21155 -0.0282,0.21565 0.0749,0.18994 0.30122,-0.0751 1.34359,-0.24783 1.65218,-0.27381 0.19444,-0.0163 0.48281,-0.0593 0.6408,-0.0953 0.44936,-0.10252 0.57354,-0.0904 0.71666,0.0697 0.23236,0.26006 0.11676,0.61731 -0.22998,0.71068 -0.42259,0.11379 -1.53844,0.31115 -2.14395,0.3792 -0.917,0.10307 -0.86007,0.068 -0.86985,0.53687 -0.0114,0.54636 -0.002,0.62383 0.10316,0.8101 0.11545,0.20541 0.22221,0.2549 0.67389,0.31241 0.55912,0.0712 1.29502,-0.0247 2.19705,-0.28647 0.32179,-0.0934 0.409,-0.10327 0.56365,-0.064 0.48839,0.12397 0.65009,0.79258 0.26919,1.11308 -0.12637,0.10633 -0.92246,0.38277 -1.72176,0.59787 -0.34324,0.0924 -1.0938,0.18376 -1.45202,0.17679 -0.11288,-0.002 -0.34881,-0.03 -0.52429,-0.0619 z m -4.63065,-0.15054 c -0.32288,-0.14948 -0.55243,-0.48996 -0.55243,-0.8194 0,-0.0851 -0.0611,-0.42879 -0.13571,-0.76376 -0.25323,-1.13643 -0.30506,-1.40421 -0.30606,-1.58129 l -8.9e-4,-0.17678 -0.12795,0.22097 c -0.40602,0.7012 -1.01016,1.00176 -1.59723,0.79463 -0.10469,-0.037 -0.255,-0.11648 -0.33404,-0.17676 -0.18016,-0.13741 -0.16832,-0.17358 -0.26042,0.79634 -0.0752,0.79215 -0.18181,1.2585 -0.33096,1.44811 -0.12496,0.15886 -0.36481,0.2336 -0.53002,0.16516 -0.15118,-0.0626 -0.28351,-0.31445 -0.25224,-0.48002 0.0892,-0.47234 0.12087,-0.73047 0.16331,-1.33213 0.0266,-0.37674 0.0984,-1.05291 0.15971,-1.50259 0.13665,-1.00291 0.27884,-2.58107 0.31257,-3.4692 0.0301,-0.79162 0.0861,-0.95117 0.38109,-1.0851 0.23108,-0.1049 0.31552,-0.10521 0.543,-0.002 0.36776,0.16702 0.44946,0.48262 0.59057,2.2813 0.0496,0.63256 0.0908,1.16951 0.0915,1.19323 0.007,0.23432 0.38209,-0.94467 0.52823,-1.66169 0.0755,-0.37022 0.20524,-0.88387 0.2884,-1.14142 0.0831,-0.25757 0.18163,-0.61326 0.21879,-0.79042 0.0849,-0.40461 0.1672,-0.56474 0.34644,-0.67403 0.18551,-0.11311 0.49538,-0.11301 0.68108,1.7e-4 0.31906,0.19453 0.44826,0.73599 0.58562,2.45432 0.13206,1.65185 0.29076,2.87731 0.44355,3.42502 0.28413,1.01846 0.39786,1.56369 0.39786,1.90739 0,0.39923 -0.0318,0.49993 -0.22868,0.72416 -0.27554,0.31383 -0.71224,0.41361 -1.07503,0.24564 z"
         id="path3570"
         inkscape:label="Path_Do_Some_Dev" /></g><rect
       style="fill:#000000;stroke:#ff1010;stroke-width:0"
       id="rect3476"
       width="2.3965766"
       height="57.538162"
       x="81.492065"
       y="0.00098826422"
       inkscape:label="Separation_Line" /><g
       data-paper-data="{&quot;isPathIcon&quot;:true}"
       id="g3410"
       transform="matrix(0,-0.46427266,0.46427266,0,-66.384634,87.716879)"
       inkscape:label="Logo"><path
         id="rect10390"
         style="opacity:1;fill:#000000;fill-opacity:1;stroke:none;stroke-width:0.434382;stroke-dasharray:none;stroke-opacity:1"
         d="m 79.839571,109.21194 c -0.838842,0 -1.514119,0.67582 -1.514119,1.51463 0,0.83885 0.675277,1.51412 1.514119,1.51412 h 4.236434 1.859318 c 0.838843,0 1.51412,0.67528 1.51412,1.51412 0,0.83885 -0.675277,1.51412 -1.51412,1.51412 H 79.263379 77.780265 75.59797 c -0.838846,0 -1.51412,0.67528 -1.51412,1.51412 0,0.83885 0.675274,1.51412 1.51412,1.51412 h 6.061645 0.711636 c 0.429786,0 1.062776,-0.2012 1.422386,-0.43653 3.77409,-2.46978 8.279771,-3.90894 13.117244,-3.90894 5.773649,0 11.075619,2.04914 15.223879,5.45548 l -4.32894,4.32894 c -3.02054,-2.31439 -6.79543,-3.69228 -10.894939,-3.69228 -7.461312,0 -13.854249,4.55797 -16.556613,11.04015 l 4.63796,1.22938 c 2.124833,-4.44918 6.668644,-7.53081 11.918653,-7.53081 7.278349,0 13.199709,5.92134 13.199709,13.19972 0,6.46819 -4.68063,11.8538 -10.830345,12.97491 V 155.76 c 8.786305,-1.16021 15.569075,-8.67479 15.569075,-17.77772 0,-4.09998 -1.37836,-7.87596 -3.69228,-10.8965 l 4.32738,-4.3279 c 2.93465,3.57396 4.86246,8.0033 5.33973,12.854 h 4.75165 c -1.20571,-14.77864 -13.57374,-26.39942 -28.663886,-26.39942 -0.01784,0 -0.03539,9.9e-4 -0.05323,0.001 v -0.002 z m -10.616923,6.05699 c -0.838845,0 -1.514119,0.67528 -1.514119,1.51412 0,0.83885 0.675274,1.51412 1.514119,1.51412 h 1.950785 c 0.838846,0 1.51412,-0.67527 1.51412,-1.51412 0,-0.83884 -0.675274,-1.51412 -1.51412,-1.51412 z m -4.068485,6.05648 c -0.838846,0 -1.51412,0.67527 -1.51412,1.51412 0,0.83885 0.675274,1.51412 1.51412,1.51412 h 0.942578 5.482869 0.990121 c 0.838845,0 1.514119,0.67527 1.514119,1.51412 0,0.83885 -0.675274,1.51464 -1.514119,1.51464 H 70.166777 67.61086 c -0.838844,0 -1.514119,0.67527 -1.514119,1.51412 0,0.83883 0.675275,1.51411 1.514119,1.51411 h 1.544092 1.241785 c 0.838843,0 1.514119,0.67528 1.514119,1.51412 0,0.83885 -0.675276,1.51412 -1.514119,1.51412 h -1.896525 -4.150651 -1.749764 c -0.838848,0 -1.51412,0.67528 -1.51412,1.51412 0,0.83885 0.675272,1.51412 1.51412,1.51412 h 0.316776 5.269963 0.244946 c 0.838847,0 1.514119,0.67527 1.514119,1.51412 0,0.83885 -0.675272,1.51412 -1.514119,1.51412 h -0.24908 -5.265829 -3.818372 c -0.838846,0 -1.514119,0.67527 -1.514119,1.51412 0,0.83885 0.675273,1.51412 1.514119,1.51412 h 3.818372 5.585706 2.484086 c 0.838847,0 1.514119,0.67527 1.514119,1.51412 0,0.83885 -0.675272,1.51464 -1.514119,1.51464 h -1.829863 -4.725293 c -0.838846,0 -1.514636,0.67527 -1.514636,1.51412 0,0.83883 0.67579,1.51411 1.514636,1.51411 h 5.736084 3.409611 c 0.838847,0 1.51412,0.67529 1.51412,1.51412 0,0.83885 -0.675273,1.51412 -1.51412,1.51412 h -2.006079 -8.654252 c -0.838846,0 -1.514119,0.67528 -1.514119,1.51412 0,0.83885 0.675273,1.51412 1.514119,1.51412 h 10.545093 3.845243 c 0.838847,0 1.51412,0.67527 1.51412,1.51412 0,0.83885 -0.675273,1.51412 -1.51412,1.51412 H 75.940068 73.04257 c -0.838847,0 -1.514119,0.67527 -1.514119,1.51412 0,0.83885 0.675272,1.51412 1.514119,1.51412 h 6.221326 6.671427 c 0.838847,0 1.51412,0.67579 1.51412,1.51464 0,0.83884 -0.675273,1.51412 -1.51412,1.51412 h -1.87017 -8.804631 c -0.838843,0 -1.514119,0.67527 -1.514119,1.51412 0,0.83881 0.675276,1.51412 1.514119,1.51412 h 21.598165 v -0.002 c 0.0175,4e-5 0.03469,0.002 0.05219,0.002 15.090623,0 27.457713,-11.6206 28.663883,-26.39943 h -4.75113 c -1.1941,12.14229 -11.46103,21.66121 -23.912753,21.66121 -12.450325,0 -22.718129,-9.51888 -23.912236,-21.66069 h 6.131925 c 1.058076,8.00911 7.400956,14.35033 15.411463,15.40836 v -4.80281 c -1.846218,-0.33657 -3.558916,-1.05977 -5.053438,-2.07894 l 4.478796,-4.52169 c 0.08488,0.0392 0.169835,0.0778 0.256315,0.11369 0.105854,0.0441 0.213253,0.0855 0.321427,0.12402 0.108176,0.039 0.21708,0.0746 0.327112,0.10801 0.110033,0.0334 0.220854,0.0641 0.33228,0.092 0.111425,0.0279 0.223595,0.0537 0.336413,0.076 0.112818,0.0223 0.226285,0.0422 0.340031,0.0589 0.113747,0.0167 0.227423,0.0308 0.342098,0.0424 0.114211,0.0112 0.228974,0.0192 0.343648,0.0248 0.114676,0.006 0.22949,0.009 0.344166,0.009 0.115138,0 0.230059,-0.003 0.345198,-0.009 0.114675,-0.006 0.229437,-0.0137 0.343648,-0.0248 0.114211,-0.0116 0.228352,-0.0257 0.342098,-0.0424 0.113747,-0.0167 0.226644,-0.0366 0.338998,-0.0589 0.112818,-0.0223 0.225505,-0.0481 0.33693,-0.076 0.111425,-0.0279 0.221883,-0.0585 0.331763,-0.092 0.110032,-0.0334 0.219453,-0.069 0.327628,-0.10801 0.108176,-0.0385 0.215109,-0.0799 0.321428,-0.12402 0.106318,-0.0441 0.211229,-0.0903 0.315226,-0.13952 0.103996,-0.0492 0.206786,-0.10071 0.307996,-0.15503 0.10121,-0.0539 0.2013,-0.11059 0.29972,-0.17002 0.0984,-0.059 0.19582,-0.12041 0.29146,-0.18448 0.0956,-0.0636 0.18924,-0.12968 0.28163,-0.19793 0.0924,-0.0687 0.18268,-0.13949 0.27182,-0.21239 0.0887,-0.0729 0.17555,-0.14824 0.26097,-0.2253 0.085,-0.0771 0.16835,-0.15647 0.2496,-0.23772 0.0817,-0.0812 0.16069,-0.16417 0.23822,-0.24959 0.0771,-0.085 0.15139,-0.17229 0.22428,-0.26097 0.0734,-0.0887 0.14414,-0.17943 0.21239,-0.27182 0.0687,-0.0924 0.13488,-0.18599 0.19895,-0.28163 0.0638,-0.0956 0.12486,-0.19252 0.18397,-0.29094 0.059,-0.0989 0.1157,-0.19908 0.17002,-0.30076 0.0543,-0.10121 0.10581,-0.20348 0.15503,-0.30747 0.0492,-0.10354 0.0959,-0.20886 0.14004,-0.31471 0.0436,-0.10632 0.0845,-0.21377 0.12351,-0.32195 0.0385,-0.10817 0.0751,-0.21708 0.10852,-0.32711 0.0334,-0.11003 0.0641,-0.22137 0.092,-0.3328 0.0279,-0.11142 0.0526,-0.22307 0.0749,-0.33589 0.0226,-0.11267 0.0422,-0.22613 0.0589,-0.34003 0.0172,-0.11375 0.0312,-0.22743 0.0424,-0.3421 0.0111,-0.11421 0.0198,-0.22897 0.0253,-0.34365 0.006,-0.11467 0.009,-0.22949 0.009,-0.34416 0,-0.11514 -0.003,-0.23001 -0.009,-0.34469 -0.006,-0.11514 -0.0142,-0.22995 -0.0253,-0.34416 -0.0111,-0.11421 -0.0252,-0.22835 -0.0424,-0.3421 -0.0167,-0.11375 -0.0362,-0.22716 -0.0589,-0.33951 -0.0223,-0.11282 -0.0471,-0.22499 -0.0749,-0.33642 -0.0279,-0.11142 -0.0586,-0.22173 -0.092,-0.33176 -0.0334,-0.11003 -0.07,-0.21945 -0.10852,-0.32763 -0.039,-0.10817 -0.0799,-0.21511 -0.12351,-0.32143 -0.0441,-0.10631 -0.0908,-0.21123 -0.14004,-0.31522 -0.0492,-0.104 -0.10071,-0.20678 -0.15503,-0.30799 -0.0543,-0.10121 -0.11106,-0.2013 -0.17002,-0.29973 -0.059,-0.0984 -0.12036,-0.19581 -0.18397,-0.29145 -0.0641,-0.0956 -0.13024,-0.18925 -0.19895,-0.28164 -0.0682,-0.0924 -0.13904,-0.18314 -0.21239,-0.27182 -0.0729,-0.0891 -0.14721,-0.17554 -0.22428,-0.26096 -0.0775,-0.085 -0.15651,-0.16835 -0.23822,-0.2496 -0.0813,-0.0812 -0.16464,-0.16064 -0.2496,-0.23771 -0.0854,-0.0775 -0.17229,-0.15242 -0.26097,-0.22531 -0.0891,-0.0729 -0.17943,-0.14363 -0.27182,-0.21187 -0.0924,-0.0687 -0.18599,-0.13489 -0.28163,-0.19896 -0.0956,-0.0636 -0.19303,-0.125 -0.29146,-0.18397 -0.0984,-0.059 -0.19851,-0.11569 -0.29972,-0.17001 -0.10121,-0.0543 -0.204,-0.10582 -0.307996,-0.15503 -0.103997,-0.0492 -0.208908,-0.0959 -0.315226,-0.14004 -0.106319,-0.0436 -0.213252,-0.085 -0.321428,-0.12403 -0.108022,-0.0387 -0.217442,-0.0746 -0.327628,-0.108 -0.110033,-0.0334 -0.220338,-0.0641 -0.331763,-0.092 -0.111425,-0.0279 -0.224112,-0.0526 -0.33693,-0.0749 -0.112354,-0.0228 -0.225251,-0.0422 -0.338998,-0.0589 -0.113746,-0.0172 -0.227887,-0.0312 -0.342098,-0.0424 -0.114211,-0.0111 -0.228973,-0.0203 -0.343648,-0.0258 -0.115139,-0.006 -0.23006,-0.008 -0.345198,-0.008 -0.114676,0 -0.22949,0.003 -0.344166,0.008 -0.114674,0.006 -0.229437,0.0147 -0.343648,0.0258 -0.114675,0.0111 -0.228351,0.0252 -0.342098,0.0424 -0.113746,0.0167 -0.227213,0.0362 -0.340031,0.0589 -0.112818,0.0223 -0.224988,0.0471 -0.336413,0.0749 -0.111426,0.0279 -0.222247,0.0586 -0.33228,0.092 -0.110032,0.0334 -0.218936,0.0695 -0.327112,0.108 -0.108174,0.039 -0.215573,0.0804 -0.321427,0.12403 -0.106318,0.0441 -0.211229,0.0908 -0.315226,0.14004 -0.103997,0.0492 -0.20678,0.10071 -0.307992,0.15503 -0.101675,0.0543 -0.201297,0.11105 -0.299723,0.17001 -0.09889,0.059 -0.195815,0.12037 -0.291455,0.18397 -0.09564,0.0641 -0.189246,0.13024 -0.281637,0.19896 -0.09224,0.0684 -0.182988,0.13883 -0.271818,0.21187 -0.08868,0.0729 -0.176004,0.14778 -0.260966,0.22531 -0.08543,0.0771 -0.168349,0.15646 -0.249597,0.23771 -0.08124,0.0813 -0.160643,0.16464 -0.237711,0.2496 -0.07707,0.0854 -0.152419,0.17182 -0.22531,0.26096 -0.07289,0.0887 -0.143678,0.17944 -0.21239,0.27182 -0.06825,0.0924 -0.134315,0.186 -0.197921,0.28164 -0.06407,0.0956 -0.125522,0.19303 -0.184484,0.29145 -0.05943,0.0984 -0.11616,0.19852 -0.170016,0.29973 -0.05432,0.10121 -0.105816,0.20399 -0.155029,0.30799 -0.04921,0.10399 -0.09542,0.20891 -0.139527,0.31522 -0.0441,0.10632 -0.08549,0.21326 -0.124023,0.32143 -0.039,0.10818 -0.07458,0.2176 -0.108004,0.32763 -0.03343,0.11003 -0.06413,0.22034 -0.09198,0.33176 -0.02786,0.11143 -0.05368,0.2236 -0.07596,0.33642 -0.02229,0.11235 -0.04174,0.22576 -0.05891,0.33951 -0.01671,0.11375 -0.03077,0.22789 -0.04237,0.3421 -0.01114,0.11421 -0.01923,0.22902 -0.02481,0.34416 -0.0056,0.11468 -0.0088,0.22955 -0.0088,0.34469 0,0.11467 0.0033,0.22949 0.0088,0.34416 0.0056,0.11468 0.01366,0.22944 0.02481,0.34365 0.01161,0.11467 0.02566,0.22835 0.04237,0.3421 0.01718,0.11374 0.03663,0.22721 0.05891,0.34003 0.02228,0.11282 0.04811,0.22447 0.07596,0.33589 0.02786,0.11143 0.05856,0.22277 0.09198,0.3328 0.03343,0.11003 0.06901,0.21894 0.108004,0.32711 0.03854,0.10818 0.07992,0.21563 0.124023,0.32195 0.04411,0.10585 0.09031,0.21117 0.139527,0.31471 0.01523,0.0322 0.03236,0.0632 0.04806,0.0951 l -4.472079,4.51497 c -1.527843,-2.15107 -2.427242,-4.77759 -2.427242,-7.61245 0,-0.38395 0.01731,-0.76374 0.04961,-1.13947 l -4.63796,-1.22938 -6.122107,-5.2e-4 c 0.444046,-4.51256 2.138329,-8.66343 4.735498,-12.0974 0.32183,-0.42552 0.292181,-1.06451 -0.0851,-1.44179 l -0.252603,-0.2526 a 1.6924519,1.6924519 22.50002 0 0 -1.196745,-0.49571 l -1.085417,0 z m -6.016171,6.057 c -0.838844,0 -1.514119,0.67527 -1.514119,1.51412 0,0.83883 0.675275,1.51411 1.514119,1.51411 h 3.894853 c 0.838845,0 1.514636,-0.67528 1.514636,-1.51411 0,-0.83885 -0.675791,-1.51412 -1.514636,-1.51412 z m -2.764172,6.05647 c -0.838847,0 -1.514119,0.67528 -1.514119,1.51412 0,0.83885 0.675272,1.51412 1.514119,1.51412 h 1.539441 c 0.838846,0 1.514119,-0.67527 1.514119,-1.51412 0,-0.83884 -0.675273,-1.51412 -1.514119,-1.51412 z m -0.720369,12.11348 c -0.838848,0 -1.51412,0.67527 -1.51412,1.51412 0,0.83883 0.675272,1.51411 1.51412,1.51411 h 2.865974 1.275892 c 0.838846,0 1.514636,-0.67528 1.514636,-1.51411 0,-0.83885 -0.67579,-1.51412 -1.514636,-1.51412 z m 3.892785,12.11295 c -0.838846,0 -1.514119,0.67527 -1.514119,1.51412 0,0.83885 0.675273,1.51412 1.514119,1.51412 h 3.053561 c 0.838846,0 1.514119,-0.67527 1.514119,-1.51412 0,-0.83885 -0.675273,-1.51412 -1.514119,-1.51412 z m 7.664649,0 c -0.838848,0 -1.514637,0.67527 -1.514637,1.51412 0,0.83885 0.675789,1.51412 1.514637,1.51412 h 1.220597 c 0.838846,0 1.514119,-0.67527 1.514119,-1.51412 0,-0.83885 -0.675273,-1.51412 -1.514119,-1.51412 z m 1.032495,6.057 c -0.838847,0 -1.51412,0.67527 -1.51412,1.51412 0,0.83883 0.675273,1.51412 1.51412,1.51412 h 2.742985 c 0.838846,0 1.514119,-0.67529 1.514119,-1.51412 0,-0.83885 -0.675273,-1.51412 -1.514119,-1.51412 z"
         inkscape:path-effect="#path-effect11849"
         inkscape:original-d="m 79.839571,109.21194 c -0.838842,0 -1.514119,0.67582 -1.514119,1.51463 0,0.83885 0.675277,1.51412 1.514119,1.51412 h 4.236434 1.859318 c 0.838843,0 1.51412,0.67528 1.51412,1.51412 0,0.83885 -0.675277,1.51412 -1.51412,1.51412 H 79.263379 77.780265 75.59797 c -0.838846,0 -1.51412,0.67528 -1.51412,1.51412 0,0.83885 0.675274,1.51412 1.51412,1.51412 h 6.061645 1.489832 c 3.900825,-2.73591 8.645591,-4.34547 13.761434,-4.34547 5.773649,0 11.075619,2.04914 15.223879,5.45548 l -4.32894,4.32894 c -3.02054,-2.31439 -6.79543,-3.69228 -10.894939,-3.69228 -7.461312,0 -13.854249,4.55797 -16.556613,11.04015 l 4.63796,1.22938 c 2.124833,-4.44918 6.668644,-7.53081 11.918653,-7.53081 7.278349,0 13.199709,5.92134 13.199709,13.19972 0,6.46819 -4.68063,11.8538 -10.830345,12.97491 V 155.76 c 8.786305,-1.16021 15.569075,-8.67479 15.569075,-17.77772 0,-4.09998 -1.37836,-7.87596 -3.69228,-10.8965 l 4.32738,-4.3279 c 2.93465,3.57396 4.86246,8.0033 5.33973,12.854 h 4.75165 c -1.20571,-14.77864 -13.57374,-26.39942 -28.663886,-26.39942 -0.01784,0 -0.03539,9.9e-4 -0.05323,0.001 v -0.002 z m -10.616923,6.05699 c -0.838845,0 -1.514119,0.67528 -1.514119,1.51412 0,0.83885 0.675274,1.51412 1.514119,1.51412 h 1.950785 c 0.838846,0 1.51412,-0.67527 1.51412,-1.51412 0,-0.83884 -0.675274,-1.51412 -1.51412,-1.51412 z m -4.068485,6.05648 c -0.838846,0 -1.51412,0.67527 -1.51412,1.51412 0,0.83885 0.675274,1.51412 1.51412,1.51412 h 0.942578 5.482869 0.990121 c 0.838845,0 1.514119,0.67527 1.514119,1.51412 0,0.83885 -0.675274,1.51464 -1.514119,1.51464 H 70.166777 67.61086 c -0.838844,0 -1.514119,0.67527 -1.514119,1.51412 0,0.83883 0.675275,1.51411 1.514119,1.51411 h 1.544092 1.241785 c 0.838843,0 1.514119,0.67528 1.514119,1.51412 0,0.83885 -0.675276,1.51412 -1.514119,1.51412 h -1.896525 -4.150651 -1.749764 c -0.838848,0 -1.51412,0.67528 -1.51412,1.51412 0,0.83885 0.675272,1.51412 1.51412,1.51412 h 0.316776 5.269963 0.244946 c 0.838847,0 1.514119,0.67527 1.514119,1.51412 0,0.83885 -0.675272,1.51412 -1.514119,1.51412 h -0.24908 -5.265829 -3.818372 c -0.838846,0 -1.514119,0.67527 -1.514119,1.51412 0,0.83885 0.675273,1.51412 1.514119,1.51412 h 3.818372 5.585706 2.484086 c 0.838847,0 1.514119,0.67527 1.514119,1.51412 0,0.83885 -0.675272,1.51464 -1.514119,1.51464 h -1.829863 -4.725293 c -0.838846,0 -1.514636,0.67527 -1.514636,1.51412 0,0.83883 0.67579,1.51411 1.514636,1.51411 h 5.736084 3.409611 c 0.838847,0 1.51412,0.67529 1.51412,1.51412 0,0.83885 -0.675273,1.51412 -1.51412,1.51412 h -2.006079 -8.654252 c -0.838846,0 -1.514119,0.67528 -1.514119,1.51412 0,0.83885 0.675273,1.51412 1.514119,1.51412 h 10.545093 3.845243 c 0.838847,0 1.51412,0.67527 1.51412,1.51412 0,0.83885 -0.675273,1.51412 -1.51412,1.51412 H 75.940068 73.04257 c -0.838847,0 -1.514119,0.67527 -1.514119,1.51412 0,0.83885 0.675272,1.51412 1.514119,1.51412 h 6.221326 6.671427 c 0.838847,0 1.51412,0.67579 1.51412,1.51464 0,0.83884 -0.675273,1.51412 -1.51412,1.51412 h -1.87017 -8.804631 c -0.838843,0 -1.514119,0.67527 -1.514119,1.51412 0,0.83881 0.675276,1.51412 1.514119,1.51412 h 21.598165 v -0.002 c 0.0175,4e-5 0.03469,0.002 0.05219,0.002 15.090623,0 27.457713,-11.6206 28.663883,-26.39943 h -4.75113 c -1.1941,12.14229 -11.46103,21.66121 -23.912753,21.66121 -12.450325,0 -22.718129,-9.51888 -23.912236,-21.66069 h 6.131925 c 1.058076,8.00911 7.400956,14.35033 15.411463,15.40836 v -4.80281 c -1.846218,-0.33657 -3.558916,-1.05977 -5.053438,-2.07894 l 4.478796,-4.52169 c 0.08488,0.0392 0.169835,0.0778 0.256315,0.11369 0.105854,0.0441 0.213253,0.0855 0.321427,0.12402 0.108176,0.039 0.21708,0.0746 0.327112,0.10801 0.110033,0.0334 0.220854,0.0641 0.33228,0.092 0.111425,0.0279 0.223595,0.0537 0.336413,0.076 0.112818,0.0223 0.226285,0.0422 0.340031,0.0589 0.113747,0.0167 0.227423,0.0308 0.342098,0.0424 0.114211,0.0112 0.228974,0.0192 0.343648,0.0248 0.114676,0.006 0.22949,0.009 0.344166,0.009 0.115138,0 0.230059,-0.003 0.345198,-0.009 0.114675,-0.006 0.229437,-0.0137 0.343648,-0.0248 0.114211,-0.0116 0.228352,-0.0257 0.342098,-0.0424 0.113747,-0.0167 0.226644,-0.0366 0.338998,-0.0589 0.112818,-0.0223 0.225505,-0.0481 0.33693,-0.076 0.111425,-0.0279 0.221883,-0.0585 0.331763,-0.092 0.110032,-0.0334 0.219453,-0.069 0.327628,-0.10801 0.108176,-0.0385 0.215109,-0.0799 0.321428,-0.12402 0.106318,-0.0441 0.211229,-0.0903 0.315226,-0.13952 0.103996,-0.0492 0.206786,-0.10071 0.307996,-0.15503 0.10121,-0.0539 0.2013,-0.11059 0.29972,-0.17002 0.0984,-0.059 0.19582,-0.12041 0.29146,-0.18448 0.0956,-0.0636 0.18924,-0.12968 0.28163,-0.19793 0.0924,-0.0687 0.18268,-0.13949 0.27182,-0.21239 0.0887,-0.0729 0.17555,-0.14824 0.26097,-0.2253 0.085,-0.0771 0.16835,-0.15647 0.2496,-0.23772 0.0817,-0.0812 0.16069,-0.16417 0.23822,-0.24959 0.0771,-0.085 0.15139,-0.17229 0.22428,-0.26097 0.0734,-0.0887 0.14414,-0.17943 0.21239,-0.27182 0.0687,-0.0924 0.13488,-0.18599 0.19895,-0.28163 0.0638,-0.0956 0.12486,-0.19252 0.18397,-0.29094 0.059,-0.0989 0.1157,-0.19908 0.17002,-0.30076 0.0543,-0.10121 0.10581,-0.20348 0.15503,-0.30747 0.0492,-0.10354 0.0959,-0.20886 0.14004,-0.31471 0.0436,-0.10632 0.0845,-0.21377 0.12351,-0.32195 0.0385,-0.10817 0.0751,-0.21708 0.10852,-0.32711 0.0334,-0.11003 0.0641,-0.22137 0.092,-0.3328 0.0279,-0.11142 0.0526,-0.22307 0.0749,-0.33589 0.0226,-0.11267 0.0422,-0.22613 0.0589,-0.34003 0.0172,-0.11375 0.0312,-0.22743 0.0424,-0.3421 0.0111,-0.11421 0.0198,-0.22897 0.0253,-0.34365 0.006,-0.11467 0.009,-0.22949 0.009,-0.34416 0,-0.11514 -0.003,-0.23001 -0.009,-0.34469 -0.006,-0.11514 -0.0142,-0.22995 -0.0253,-0.34416 -0.0111,-0.11421 -0.0252,-0.22835 -0.0424,-0.3421 -0.0167,-0.11375 -0.0362,-0.22716 -0.0589,-0.33951 -0.0223,-0.11282 -0.0471,-0.22499 -0.0749,-0.33642 -0.0279,-0.11142 -0.0586,-0.22173 -0.092,-0.33176 -0.0334,-0.11003 -0.07,-0.21945 -0.10852,-0.32763 -0.039,-0.10817 -0.0799,-0.21511 -0.12351,-0.32143 -0.0441,-0.10631 -0.0908,-0.21123 -0.14004,-0.31522 -0.0492,-0.104 -0.10071,-0.20678 -0.15503,-0.30799 -0.0543,-0.10121 -0.11106,-0.2013 -0.17002,-0.29973 -0.059,-0.0984 -0.12036,-0.19581 -0.18397,-0.29145 -0.0641,-0.0956 -0.13024,-0.18925 -0.19895,-0.28164 -0.0682,-0.0924 -0.13904,-0.18314 -0.21239,-0.27182 -0.0729,-0.0891 -0.14721,-0.17554 -0.22428,-0.26096 -0.0775,-0.085 -0.15651,-0.16835 -0.23822,-0.2496 -0.0813,-0.0812 -0.16464,-0.16064 -0.2496,-0.23771 -0.0854,-0.0775 -0.17229,-0.15242 -0.26097,-0.22531 -0.0891,-0.0729 -0.17943,-0.14363 -0.27182,-0.21187 -0.0924,-0.0687 -0.18599,-0.13489 -0.28163,-0.19896 -0.0956,-0.0636 -0.19303,-0.125 -0.29146,-0.18397 -0.0984,-0.059 -0.19851,-0.11569 -0.29972,-0.17001 -0.10121,-0.0543 -0.204,-0.10582 -0.307996,-0.15503 -0.103997,-0.0492 -0.208908,-0.0959 -0.315226,-0.14004 -0.106319,-0.0436 -0.213252,-0.085 -0.321428,-0.12403 -0.108022,-0.0387 -0.217442,-0.0746 -0.327628,-0.108 -0.110033,-0.0334 -0.220338,-0.0641 -0.331763,-0.092 -0.111425,-0.0279 -0.224112,-0.0526 -0.33693,-0.0749 -0.112354,-0.0228 -0.225251,-0.0422 -0.338998,-0.0589 -0.113746,-0.0172 -0.227887,-0.0312 -0.342098,-0.0424 -0.114211,-0.0111 -0.228973,-0.0203 -0.343648,-0.0258 -0.115139,-0.006 -0.23006,-0.008 -0.345198,-0.008 -0.114676,0 -0.22949,0.003 -0.344166,0.008 -0.114674,0.006 -0.229437,0.0147 -0.343648,0.0258 -0.114675,0.0111 -0.228351,0.0252 -0.342098,0.0424 -0.113746,0.0167 -0.227213,0.0362 -0.340031,0.0589 -0.112818,0.0223 -0.224988,0.0471 -0.336413,0.0749 -0.111426,0.0279 -0.222247,0.0586 -0.33228,0.092 -0.110032,0.0334 -0.218936,0.0695 -0.327112,0.108 -0.108174,0.039 -0.215573,0.0804 -0.321427,0.12403 -0.106318,0.0441 -0.211229,0.0908 -0.315226,0.14004 -0.103997,0.0492 -0.20678,0.10071 -0.307992,0.15503 -0.101675,0.0543 -0.201297,0.11105 -0.299723,0.17001 -0.09889,0.059 -0.195815,0.12037 -0.291455,0.18397 -0.09564,0.0641 -0.189246,0.13024 -0.281637,0.19896 -0.09224,0.0684 -0.182988,0.13883 -0.271818,0.21187 -0.08868,0.0729 -0.176004,0.14778 -0.260966,0.22531 -0.08543,0.0771 -0.168349,0.15646 -0.249597,0.23771 -0.08124,0.0813 -0.160643,0.16464 -0.237711,0.2496 -0.07707,0.0854 -0.152419,0.17182 -0.22531,0.26096 -0.07289,0.0887 -0.143678,0.17944 -0.21239,0.27182 -0.06825,0.0924 -0.134315,0.186 -0.197921,0.28164 -0.06407,0.0956 -0.125522,0.19303 -0.184484,0.29145 -0.05943,0.0984 -0.11616,0.19852 -0.170016,0.29973 -0.05432,0.10121 -0.105816,0.20399 -0.155029,0.30799 -0.04921,0.10399 -0.09542,0.20891 -0.139527,0.31522 -0.0441,0.10632 -0.08549,0.21326 -0.124023,0.32143 -0.039,0.10818 -0.07458,0.2176 -0.108004,0.32763 -0.03343,0.11003 -0.06413,0.22034 -0.09198,0.33176 -0.02786,0.11143 -0.05368,0.2236 -0.07596,0.33642 -0.02229,0.11235 -0.04174,0.22576 -0.05891,0.33951 -0.01671,0.11375 -0.03077,0.22789 -0.04237,0.3421 -0.01114,0.11421 -0.01923,0.22902 -0.02481,0.34416 -0.0056,0.11468 -0.0088,0.22955 -0.0088,0.34469 0,0.11467 0.0033,0.22949 0.0088,0.34416 0.0056,0.11468 0.01366,0.22944 0.02481,0.34365 0.01161,0.11467 0.02566,0.22835 0.04237,0.3421 0.01718,0.11374 0.03663,0.22721 0.05891,0.34003 0.02228,0.11282 0.04811,0.22447 0.07596,0.33589 0.02786,0.11143 0.05856,0.22277 0.09198,0.3328 0.03343,0.11003 0.06901,0.21894 0.108004,0.32711 0.03854,0.10818 0.07992,0.21563 0.124023,0.32195 0.04411,0.10585 0.09031,0.21117 0.139527,0.31471 0.01523,0.0322 0.03236,0.0632 0.04806,0.0951 l -4.472079,4.51497 c -1.527843,-2.15107 -2.427242,-4.77759 -2.427242,-7.61245 0,-0.38395 0.01731,-0.76374 0.04961,-1.13947 l -4.63796,-1.22938 -6.122107,-5.2e-4 c 0.477272,-4.85022 2.398882,-9.28259 5.333525,-12.85606 l -1.431438,-1.43144 h -1.786454 z m -6.016171,6.057 c -0.838844,0 -1.514119,0.67527 -1.514119,1.51412 0,0.83883 0.675275,1.51411 1.514119,1.51411 h 3.894853 c 0.838845,0 1.514636,-0.67528 1.514636,-1.51411 0,-0.83885 -0.675791,-1.51412 -1.514636,-1.51412 z m -2.764172,6.05647 c -0.838847,0 -1.514119,0.67528 -1.514119,1.51412 0,0.83885 0.675272,1.51412 1.514119,1.51412 h 1.539441 c 0.838846,0 1.514119,-0.67527 1.514119,-1.51412 0,-0.83884 -0.675273,-1.51412 -1.514119,-1.51412 z m -0.720369,12.11348 c -0.838848,0 -1.51412,0.67527 -1.51412,1.51412 0,0.83883 0.675272,1.51411 1.51412,1.51411 h 2.865974 1.275892 c 0.838846,0 1.514636,-0.67528 1.514636,-1.51411 0,-0.83885 -0.67579,-1.51412 -1.514636,-1.51412 z m 3.892785,12.11295 c -0.838846,0 -1.514119,0.67527 -1.514119,1.51412 0,0.83885 0.675273,1.51412 1.514119,1.51412 h 3.053561 c 0.838846,0 1.514119,-0.67527 1.514119,-1.51412 0,-0.83885 -0.675273,-1.51412 -1.514119,-1.51412 z m 7.664649,0 c -0.838848,0 -1.514637,0.67527 -1.514637,1.51412 0,0.83885 0.675789,1.51412 1.514637,1.51412 h 1.220597 c 0.838846,0 1.514119,-0.67527 1.514119,-1.51412 0,-0.83885 -0.675273,-1.51412 -1.514119,-1.51412 z m 1.032495,6.057 c -0.838847,0 -1.51412,0.67527 -1.51412,1.51412 0,0.83883 0.675273,1.51412 1.51412,1.51412 h 2.742985 c 0.838846,0 1.514119,-0.67529 1.514119,-1.51412 0,-0.83885 -0.675273,-1.51412 -1.514119,-1.51412 z"
         transform="matrix(0,2.1539067,-2.1539067,0,424.16527,26.375241)" /></g></g></svg>
