<svg
   width="16"
   height="16"
   viewBox="0 0 1.376564 2.4289169"
   version="1.1"
   id="svg85"
   xml:space="preserve"
   xmlns="http://www.w3.org/2000/svg"
   xmlns:svg="http://www.w3.org/2000/svg"><defs
     id="defs82" /><g
     id="layer1"
     transform="translate(-108.86657,-102.55885)"><g
       id="g560"
       transform="matrix(0.0265746,0,0,0.0265746,117.34918,82.497681)"><text
         transform="translate(-696.6951,-356.281)"
         class="st0"
         style="font-size:45.8156px;font-family:MyriadPro-Regular"
         id="text4">Black #000000</text><text
         transform="translate(-1587.3539,-356.281)"
         id="text14"><tspan
           x="0"
           y="0"
           class="st0"
           style="font-size:45.8156px;font-family:MyriadPro-Regular"
           id="tspan6">Notes:</tspan><tspan
           x="0"
           y="110"
           class="st0"
           style="font-size:45.8156px;font-family:MyriadPro-Regular"
           id="tspan8">Always use the full wordmark</tspan><tspan
           x="0"
           y="164.89999"
           class="st0"
           style="font-size:45.8156px;font-family:MyriadPro-Regular"
           id="tspan10">unless you’re explicitly speaking to</tspan><tspan
           x="0"
           y="219.89999"
           class="st0"
           style="font-size:45.8156px;font-family:MyriadPro-Regular"
           id="tspan12">or marketing the iOS or Android app</tspan></text><text
         transform="translate(-691.9711,189.9763)"
         class="st0"
         style="font-size:21.8043px;font-family:MyriadPro-Regular"
         id="text16">iOS icon</text><text
         transform="translate(-696.6951,-111.0251)"
         class="st0"
         style="font-size:21.8043px;font-family:MyriadPro-Regular"
         id="text18">Wordmark (always use full word)</text><text
         transform="translate(-369.3826,189.9763)"
         class="st0"
         style="font-size:21.8043px;font-family:MyriadPro-Regular"
         id="text20">Android Icon</text><text
         transform="translate(-2.538842e-4,189.9763)"
         class="st0"
         style="font-size:21.8043px;font-family:MyriadPro-Regular"
         id="text22">t icon</text><text
         transform="translate(-696.6951,363.683)"
         class="st0"
         style="font-size:45.8156px;font-family:MyriadPro-Regular"
         id="text24">White #000000</text><text
         transform="translate(-691.9711,909.9404)"
         class="st0"
         style="font-size:21.8043px;font-family:MyriadPro-Regular"
         id="text26">iOS icon</text><text
         transform="translate(-696.6951,608.9389)"
         class="st0"
         style="font-size:21.8043px;font-family:MyriadPro-Regular"
         id="text28">Wordmark (always use full word)</text><text
         transform="translate(-369.3826,909.9404)"
         class="st0"
         style="font-size:21.8043px;font-family:MyriadPro-Regular"
         id="text30">Android Icon</text><text
         transform="translate(-2.538842e-4,909.9404)"
         class="st0"
         style="font-size:21.8043px;font-family:MyriadPro-Regular"
         id="text32">t icon</text><text
         transform="translate(239.2582,-356.281)"
         class="st0"
         style="font-size:45.8156px;font-family:MyriadPro-Regular"
         id="text34">Blue #001935</text><text
         transform="translate(243.9822,189.9763)"
         class="st0"
         style="font-size:21.8043px;font-family:MyriadPro-Regular"
         id="text36">iOS icon</text><text
         transform="translate(239.2582,-111.0251)"
         class="st0"
         style="font-size:21.8043px;font-family:MyriadPro-Regular"
         id="text38">Wordmark (always use full word)</text><text
         transform="translate(566.5707,189.9763)"
         class="st0"
         style="font-size:21.8043px;font-family:MyriadPro-Regular"
         id="text40">Android Icon</text><text
         transform="translate(935.953,189.9763)"
         class="st0"
         style="font-size:21.8043px;font-family:MyriadPro-Regular"
         id="text42">t icon</text><path
         class="st1"
         d="m 302.9,-147.5 c -24,0 -41.8,-12.3 -41.8,-41.8 v -47.2 h -21.8 v -25.6 c 24,-6.2 34,-26.8 35.1,-44.7 h 24.9 v 40.6 h 29 v 29.7 h -29 v 41.1 c 0,12.3 6.2,16.6 16.1,16.6 h 14.1 v 31.3 z m 89,1.4 c 13.6,0 29.3,-5.9 37.8,-16.4 v 15 h 44.8 V -173 h -11.4 v -93.3 H 409 v 25.9 h 15.4 v 44.9 c 0,3.6 -3,18.7 -23.3,18.7 -13,0 -15.4,-7.8 -15.4,-17.7 v -71.8 h -39.9 v 73.4 c 0,18.3 8.3,46.8 46.1,46.8 z m 96.9,-1.4 h 65.6 V -173 H 541 v -44.4 c 0,-6.5 5.5,-19.7 22.4,-19.7 13.6,0 16.4,8.3 16.4,18.1 v 46 h -13.2 v 25.5 h 65.1 V -173 H 618 v -44.4 c 0,-6.5 5,-19.7 21.9,-19.7 13.7,0 17.1,8.3 17.1,18.1 v 46 h -13 v 25.5 h 64.8 V -173 h -13.3 v -41.5 c 0,-24.4 -9.2,-53.2 -45.6,-53.2 -18,0 -32.7,8.5 -38.9,19 -7.8,-11.9 -19.7,-19 -37.4,-19 -14.1,0 -29.5,6 -37.8,17.4 v -16 h -49.2 v 25.9 h 15.9 V -173 H 489 v 25.5 z m 303,1.4 c 33.2,0 51,-24.9 51,-62.2 0,-35.8 -16.6,-59.3 -50.3,-59.3 -11.9,0 -23.7,4.5 -30.9,10 v -49.2 h -54.8 v 25.7 h 15.9 v 133.6 h 36.5 V -158 c 9.4,7.8 20.5,11.9 32.6,11.9 z m -8.3,-29 c -11.6,0 -23,-7.4 -23,-30.6 0,-28 13.5,-33 22.8,-33 10.8,0 20.4,8.8 20.4,30.5 0,31.4 -14.1,32.4 -20.2,33.1 z m 66.5,27.6 h 66 V -173 h -14 v -133.9 h -54.4 v 25.7 h 15.9 V -173 H 850 Z m 80.4,0 h 64.9 V -173 H 982 v -33.2 c 0,-22.6 15.9,-27.5 28,-27.5 h 16.1 v -34 h -13 c -14.7,0 -28.3,7.1 -34.4,18.5 v -17.2 h -49.4 v 25.9 h 14.3 v 67.4 h -13.1 v 25.6 z"
         id="path44" /><path
         class="st1"
         d="m 999.6,159.3 c -24,0 -41.8,-12.3 -41.8,-41.8 V 70.3 H 936 V 44.7 C 960,38.5 970,17.9 971.1,0 H 996 v 40.6 h 29 v 29.7 h -29 v 41.1 c 0,12.3 6.2,16.6 16.1,16.6 h 14.1 v 31.3 z"
         id="path46" /><g
         id="g52">
	<path
   class="st1"
   d="m 645.1,1.3 c -43.4,0 -78.6,35.1 -78.6,78.3 0,43.2 35.1,78.5 78.6,78.5 43.2,0 78.3,-35.3 78.3,-78.5 C 723.5,36.2 688.3,1.3 645.1,1.3 Z"
   id="path48" />
	<path
   class="st0"
   d="m 651.2,97.3 c 0,7.1 3.6,9.5 9.2,9.5 h 8.1 v 18 h -15.3 c -13.7,0 -24,-7.1 -24,-24 V 73.7 H 616.7 V 59 c 13.7,-3.6 19.5,-15.4 20.2,-25.6 h 14.3 v 23.3 h 16.6 v 17 h -16.6 v 23.6"
   id="path50" />
</g><g
         id="g58">
	<path
   class="st1"
   d="m 359.9,7.3 h -87 C 257,7.3 244,20.3 244,36.2 v 87 c 0,15.9 13,28.9 28.9,28.9 h 87 c 15.9,0 28.9,-13 28.9,-28.9 v -87 c 0,-15.9 -13,-28.9 -28.9,-28.9 z"
   id="path54" />
	<path
   class="st0"
   d="M 341.3,124.8 H 326 c -13.7,0 -24,-7.1 -24,-24 V 73.7 H 289.5 V 59 C 303.2,55.4 309,43.6 309.7,33.4 H 324 v 23.3 h 16.6 v 17 H 324 v 23.6 c 0,7.1 3.6,9.5 9.2,9.5 h 8.1 z"
   id="path56" />
</g><path
         class="st0"
         d="m -633.1,573.9 c -24,0 -41.8,-12.3 -41.8,-41.8 v -47.2 h -21.8 v -25.6 c 24,-6.2 34,-26.8 35.1,-44.7 h 24.9 v 40.6 h 29 v 29.7 h -29 V 526 c 0,12.3 6.2,16.6 16.1,16.6 h 14.1 v 31.3 z m 89.1,1.4 c 13.6,0 29.3,-5.9 37.8,-16.4 v 15 h 44.8 v -25.5 h -11.4 V 455.1 H -527 V 481 h 15.4 v 45 c 0,3.6 -3,18.7 -23.3,18.7 -13,0 -15.4,-7.8 -15.4,-17.7 v -71.8 h -39.9 v 73.4 c 0.1,18.3 8.4,46.7 46.2,46.7 z m 96.9,-1.4 h 65.6 v -25.5 h -13.4 V 504 c 0,-6.5 5.5,-19.7 22.4,-19.7 13.6,0 16.4,8.3 16.4,18.1 v 46 h -13.2 v 25.5 h 65.1 V 548.4 H -318 V 504 c 0,-6.5 5,-19.7 21.9,-19.7 13.7,0 17.1,8.3 17.1,18.1 v 46 h -13 v 25.5 h 64.8 v -25.5 h -13.3 V 507 c 0,-24.4 -9.2,-53.2 -45.6,-53.2 -18,0 -32.7,8.5 -38.9,19 -7.8,-11.9 -19.7,-19 -37.4,-19 -14.1,0 -29.5,6 -37.8,17.4 v -16 h -49.2 v 25.9 h 15.9 v 67.4 H -447 v 25.4 z m 303,1.4 c 33.2,0 51,-24.9 51,-62.2 0,-35.8 -16.6,-59.3 -50.3,-59.3 -11.9,0 -23.7,4.5 -30.9,10 v -49.2 h -54.8 v 25.7 h 15.9 v 133.6 h 36.5 v -10.5 c 9.3,7.9 20.5,11.9 32.6,11.9 z m -8.3,-28.9 c -11.6,0 -23,-7.4 -23,-30.6 0,-28 13.5,-33 22.8,-33 10.8,0 20.4,8.8 20.4,30.5 -0.1,31.4 -14.1,32.4 -20.2,33.1 z m 66.5,27.5 h 66 V 548.4 H -34 V 414.6 h -54.4 v 25.7 h 15.9 V 548.5 H -86 v 25.4 z m 80.4,0 H 59.4 V 548.4 H 46.1 v -33.2 c 0,-22.6 15.9,-27.5 28,-27.5 h 16.1 v -34 h -13 c -14.7,0 -28.3,7.1 -34.4,18.5 V 455 H -6.7 v 25.9 H 7.6 v 67.4 H -5.5 Z"
         id="path60" /><path
         class="st0"
         d="m 63.6,880.8 c -24,0 -41.8,-12.3 -41.8,-41.8 V 791.8 H 0 V 766.2 C 24,760 34,739.4 35.1,721.5 H 60 V 762 h 29 v 29.7 H 60 v 41.1 c 0,12.3 6.2,16.6 16.1,16.6 h 14.1 v 31.3 H 63.6 Z"
         id="path62" /><g
         id="g68">
	<path
   class="st0"
   d="m -290.8,722.7 c -43.4,0 -78.6,35.1 -78.6,78.3 0,43.2 35.1,78.5 78.6,78.5 43.2,0 78.3,-35.3 78.3,-78.5 0,-43.4 -35.1,-78.3 -78.3,-78.3 z"
   id="path64" />
	<path
   class="st2"
   d="m -284.7,818.8 c 0,7.1 3.6,9.5 9.2,9.5 h 8.1 v 18 h -15.3 c -13.7,0 -24,-7.1 -24,-24 v -27.1 h -12.5 v -14.7 c 13.7,-3.6 19.5,-15.4 20.2,-25.6 h 14.3 v 23.3 h 16.6 v 17 h -16.6 v 23.6"
   id="path66" />
</g><g
         id="g74">
	<path
   class="st0"
   d="m -576.1,728.7 h -87 c -15.9,0 -28.9,13 -28.9,28.9 v 87 c 0,15.9 13,28.9 28.9,28.9 h 87 c 15.9,0 28.9,-13 28.9,-28.9 v -87 c 0.1,-15.9 -13,-28.9 -28.9,-28.9 z"
   id="path70" />
	<path
   class="st2"
   d="m -594.6,846.2 h -15.3 c -13.7,0 -24,-7.1 -24,-24 v -27.1 h -12.5 v -14.7 c 13.7,-3.6 19.5,-15.4 20.2,-25.6 h 14.3 v 23.3 h 16.6 v 17 h -16.6 v 23.6 c 0,7.1 3.6,9.5 9.2,9.5 h 8.1 z"
   id="path72" />
</g><path
         d="m -633.1,-147.5 c -24,0 -41.8,-12.3 -41.8,-41.8 v -47.2 h -21.8 v -25.6 c 24,-6.2 34,-26.8 35.1,-44.7 h 24.9 v 40.6 h 29 v 29.7 h -29 v 41.1 c 0,12.3 6.2,16.6 16.1,16.6 h 14.1 v 31.3 z m 89.1,1.4 c 13.6,0 29.3,-5.9 37.8,-16.4 v 15 h 44.8 V -173 h -11.4 v -93.3 H -527 v 25.9 h 15.4 v 44.9 c 0,3.6 -3,18.7 -23.3,18.7 -13,0 -15.4,-7.8 -15.4,-17.7 v -71.8 h -39.9 v 73.4 c 0.1,18.3 8.4,46.8 46.2,46.8 z m 96.9,-1.4 h 65.6 V -173 h -13.4 v -44.4 c 0,-6.5 5.5,-19.7 22.4,-19.7 13.6,0 16.4,8.3 16.4,18.1 v 46 h -13.2 v 25.5 h 65.1 V -173 H -318 v -44.4 c 0,-6.5 5,-19.7 21.9,-19.7 13.7,0 17.1,8.3 17.1,18.1 v 46 h -13 v 25.5 h 64.8 V -173 h -13.3 v -41.5 c 0,-24.4 -9.2,-53.2 -45.6,-53.2 -18,0 -32.7,8.5 -38.9,19 -7.8,-11.9 -19.7,-19 -37.4,-19 -14.1,0 -29.5,6 -37.8,17.4 v -16 h -49.2 v 25.9 h 15.9 V -173 H -447 v 25.5 z m 303,1.4 c 33.2,0 51,-24.9 51,-62.2 0,-35.8 -16.6,-59.3 -50.3,-59.3 -11.9,0 -23.7,4.5 -30.9,10 v -49.2 h -54.8 v 25.7 h 15.9 v 133.6 h 36.5 V -158 c 9.3,7.8 20.5,11.9 32.6,11.9 z m -8.3,-29 c -11.6,0 -23,-7.4 -23,-30.6 0,-28 13.5,-33 22.8,-33 10.8,0 20.4,8.8 20.4,30.5 -0.1,31.4 -14.1,32.4 -20.2,33.1 z m 66.5,27.6 h 66 V -173 H -34 v -133.9 h -54.4 v 25.7 h 15.9 V -173 H -86 v 25.5 z m 80.4,0 H 59.4 V -173 H 46.1 v -33.2 c 0,-22.6 15.9,-27.5 28,-27.5 h 16.1 v -34 h -13 c -14.7,0 -28.3,7.1 -34.4,18.5 v -17.2 H -6.7 v 25.9 H 7.6 v 67.4 H -5.5 Z"
         id="path76" /><path
         d="m 63.6,159.3 c -24,0 -41.8,-12.3 -41.8,-41.8 V 70.3 H 0 V 44.7 C 24,38.5 34,17.9 35.1,0 H 60 V 40.6 H 89 V 70.3 H 60 v 41.1 c 0,12.3 6.2,16.6 16.1,16.6 h 14.1 v 31.3 z"
         id="path78" /><g
         id="g84">
	<path
   d="m -290.8,1.3 c -43.4,0 -78.6,35.1 -78.6,78.3 0,43.2 35.1,78.5 78.6,78.5 43.2,0 78.3,-35.3 78.3,-78.5 0,-43.4 -35.1,-78.3 -78.3,-78.3 z"
   id="path80" />
	<path
   class="st0"
   d="m -284.7,97.3 c 0,7.1 3.6,9.5 9.2,9.5 h 8.1 v 18 h -15.3 c -13.7,0 -24,-7.1 -24,-24 V 73.7 h -12.5 V 59 c 13.7,-3.6 19.5,-15.4 20.2,-25.6 h 14.3 v 23.3 h 16.6 v 17 h -16.6 v 23.6"
   id="path82" />
</g><g
         id="g90">
	<path
   d="m -576.1,7.3 h -87 c -15.9,0 -28.9,13 -28.9,28.9 v 87 c 0,15.9 13,28.9 28.9,28.9 h 87 c 15.9,0 28.9,-13 28.9,-28.9 v -87 c 0.1,-15.9 -13,-28.9 -28.9,-28.9 z"
   id="path86" />
	<path
   class="st0"
   d="m -594.6,124.8 h -15.3 c -13.7,0 -24,-7.1 -24,-24 V 73.7 h -12.5 V 59 c 13.7,-3.6 19.5,-15.4 20.2,-25.6 h 14.3 v 23.3 h 16.6 v 17 h -16.6 v 23.6 c 0,7.1 3.6,9.5 9.2,9.5 h 8.1 z"
   id="path88" />
</g></g></g><style
     type="text/css"
     id="style2">
	.st0{fill:#FFFFFF;}
	.st1{fill:#001935;}
	.st2{fill:#231F20;}
</style></svg>
